Coordinates
version=1
nRows=10
nColumns=63
inDegrees=yes

Units are S.I. units (second, meters, Newtons, ...)
If the header above contains a line with 'inDegrees', this indicates whether rotational values are in degrees (yes) or radians (no).

endheader
time	pelvis_tilt	pelvis_list	pelvis_rotation	pelvis_tx	pelvis_ty	pelvis_tz	hip_flexion_r	hip_adduction_r	hip_rotation_r	knee_angle_r	knee_angle_r_beta	ankle_angle_r	subtalar_angle_r	mtp_angle_r	hip_flexion_l	hip_adduction_l	hip_rotation_l	knee_angle_l	knee_angle_l_beta	ankle_angle_l	subtalar_angle_l	mtp_angle_l	L5_S1_Flex_Ext	L5_S1_Lat_Bending	L5_S1_axial_rotation	L4_L5_Flex_Ext	L4_L5_Lat_Bending	L4_L5_axial_rotation	L3_L4_Flex_Ext	L3_L4_Lat_Bending	L3_L4_axial_rotation	L2_L3_Flex_Ext	L2_L3_Lat_Bending	L2_L3_axial_rotation	L1_L2_Flex_Ext	L1_L2_Lat_Bending	L1_L2_axial_rotation	L1_T12_Flex_Ext	L1_T12_Lat_Bending	L1_T12_axial_rotation	Abs_r3	Abs_r2	Abs_r1	Abs_t1	Abs_t2	neck_flexion	neck_bending	neck_rotation	arm_flex_r	arm_add_r	arm_rot_r	elbow_flex_r	pro_sup_r	wrist_flex_r	wrist_dev_r	arm_flex_l	arm_add_l	arm_rot_l	elbow_flex_l	pro_sup_l	wrist_flex_l	wrist_dev_l
      2.00000000	      0.50816391	     -1.98027803	     85.15900669	      0.21824036	      0.79154166	      0.70102211	      0.89153706	     -0.22836241	    -15.00698926	      8.06997064	      0.14084756	     21.83403550	     18.39583775	      0.00000000	      0.10536597	     -1.39399261	      2.46854785	      8.45975547	      0.14765059	     10.23358695	    -10.94785203	      0.00000000	      0.54284374	     -0.07648622	     -1.24706048	      1.00811511	     -0.10172667	     -1.32500176	      0.89183798	     -0.18596860	     -1.32500176	      0.62041611	     -0.18596860	     -1.09117792	      0.50408470	     -0.15597070	     -1.01323664	      0.31018091	     -0.11847716	     -0.93529536	      3.87747855	     -0.86522742	     -6.93577625	      0.00000000	      0.00000000	     28.18265172	     -2.64956509	    -17.18540753	    -18.84952304	   -155.45208175	    -97.93151345	     29.12492392	     87.99679819	    -36.49926104	     -0.77783172	    -14.01076007	   -171.49531948	     26.06406069	      0.52931881	     16.54351447	    -26.04760148	      6.84414262
      2.01694915	      0.52489136	     -1.89767823	     85.18413026	      0.21851381	      0.79147427	      0.70088201	      0.90964592	     -0.21173495	    -14.85050574	      8.17363904	      0.14265691	     21.97185046	     18.32537066	      0.00000000	      0.17341717	     -1.50462085	      1.26656560	      8.86060301	      0.15464670	     10.51281617	     -9.70016895	      0.00000000	      0.53366708	     -0.08331807	     -1.29204647	      0.99107313	     -0.11081304	     -1.37279938	      0.87676165	     -0.20257957	     -1.37279938	      0.60992811	     -0.20257957	     -1.13054066	      0.49556325	     -0.16990222	     -1.04978776	      0.30493737	     -0.12905970	     -0.96903485	      3.81193059	     -0.94251072	     -7.18597486	      0.00000000	      0.00000000	     28.16518825	     -2.11213963	    -16.75621627	    -19.79329239	   -154.93335576	   -102.78431958	     29.97576910	     87.99281368	    -37.30958872	     -2.28602915	    -14.01302069	   -171.27618416	     25.43551545	      0.50421938	     19.46995645	    -25.23241049	      8.16499511
      2.03389831	      0.52557928	     -1.81816753	     85.12212583	      0.21894299	      0.79131799	      0.70084181	      0.95751781	     -0.21750084	    -14.63750671	      8.32538880	      0.14530545	     22.14987231	     18.27874179	      0.00000000	      0.23951853	     -1.61329504	      0.04042542	      9.25847876	      0.16159094	     10.73637758	     -8.44549449	      0.00000000	      0.52441229	     -0.09358876	     -1.30045570	      0.97388606	     -0.12447305	     -1.38173418	      0.86155695	     -0.22755171	     -1.38173418	      0.59935081	     -0.22755171	     -1.13789874	      0.48696925	     -0.19084620	     -1.05662026	      0.29964918	     -0.14496899	     -0.97534178	      3.74582454	     -1.05869479	     -7.23274447	      0.00000000	      0.00000000	     28.14778670	     -1.57333890	    -16.44640128	    -20.90356955	   -154.49196145	   -107.91943703	     31.68597696	     88.02803105	    -36.57399476	     -4.05139969	    -14.18948276	   -171.47152074	     24.37639012	      0.47348437	     19.86411364	    -26.23964312	      7.95320979
      2.05084746	      0.53797105	     -1.70295149	     84.93610005	      0.21949056	      0.79104808	      0.70093362	      1.00670357	     -0.22642951	    -14.44727832	      8.56564511	      0.14949871	     22.33753563	     18.25684084	      0.00000000	      0.22371350	     -1.70235273	     -0.89309490	      9.58468980	      0.16728439	     10.94417813	     -7.71883628	      0.00000000	      0.50848844	     -0.10462960	     -1.25629255	      0.94431389	     -0.13915737	     -1.33481083	      0.83539566	     -0.25439641	     -1.33481083	      0.58115144	     -0.25439641	     -1.09925598	      0.47218237	     -0.21336068	     -1.02073770	      0.29055030	     -0.16207125	     -0.94221941	      3.63208210	     -1.18359095	     -6.98712226	      0.00000000	      0.00000000	     28.13978724	     -1.14520081	    -16.48759434	    -21.74648691	   -154.09037631	   -111.64514237	     34.08254162	     87.96505651	    -34.50267205	     -5.57978152	    -14.55757286	   -172.02276119	     22.97790350	      0.45246538	     17.58597494	    -29.48408769	      6.13801314
      2.06779661	      0.48181244	     -1.61279494	     84.83650518	      0.22009975	      0.79047730	      0.70102833	      1.08522114	     -0.29861129	    -14.33656857	      8.86411079	      0.15470792	     22.54261258	     18.19743373	      0.00000000	      0.30405585	     -1.76359380	     -1.91768468	     10.01510164	      0.17479650	     11.40515521	     -6.52840089	      0.00000000	      0.50602526	     -0.12617027	     -1.21321202	      0.93973951	     -0.16780646	     -1.28903777	      0.83134890	     -0.30677040	     -1.28903777	      0.57833627	     -0.30677040	     -1.06156052	      0.46989506	     -0.25728642	     -0.98573476	      0.28914283	     -0.19543775	     -0.90990901	      3.61448782	     -1.42726333	     -6.74752128	      0.00000000	      0.00000000	     28.13800063	     -0.76165995	    -16.33770660	    -22.32524745	   -153.76289422	   -113.55576484	     36.93889217	     88.23645489	    -32.32377275	     -6.42622565	    -15.03618988	   -172.86184099	     21.64218949	      0.42069328	     10.56432696	    -32.60540254	      1.13551497
      2.08474576	      0.44754714	     -1.45107187	     84.65122410	      0.22065076	      0.78974123	      0.70109300	      1.07728219	     -0.36553622	    -14.14284486	      9.19488783	      0.16048107	     22.74331238	     18.15003111	      0.00000000	      0.24061727	     -1.75254888	     -2.20379672	     10.32116647	      0.18013834	     11.80337347	     -6.44864669	      0.00000000	      0.49215405	     -0.15315595	     -1.10854187	      0.91397929	     -0.20369741	     -1.17782573	      0.80855989	     -0.37238337	     -1.17782573	      0.56248287	     -0.37238337	     -0.96997413	      0.45701425	     -0.31231560	     -0.90069027	      0.28121683	     -0.23723856	     -0.83140640	      3.51540719	     -1.73253069	     -6.16537731	      0.00000000	      0.00000000	     28.15166995	     -0.73043615	    -17.37225065	    -22.06723643	   -153.11359083	   -112.55027748	     40.36971619	     88.39730066	    -30.84687963	     -6.07277717	    -15.62306309	   -174.16459802	     19.34591161	      0.39386936	      4.56875267	    -35.33714550	     -4.83698187
      2.10169492	      0.39303144	     -1.25098733	     84.47937437	      0.22150393	      0.78887238	      0.70103902	      1.03394862	     -0.43888205	    -13.89873203	      9.59548661	      0.16747283	     22.98337829	     18.06905619	      0.00000000	      0.09304163	     -1.70054379	     -2.16849756	     10.51461367	      0.18351463	     12.21101089	     -6.72699378	      0.00000000	      0.47760901	     -0.19978297	     -1.00565327	      0.88696769	     -0.26571135	     -1.06850660	      0.78466384	     -0.48575232	     -1.06850660	      0.54585934	     -0.48575232	     -0.87994661	      0.44350773	     -0.40739744	     -0.81709329	      0.27290579	     -0.30946383	     -0.75423996	      3.41151340	     -2.25998495	     -5.59314182	      0.00000000	      0.00000000	     28.16483852	     -0.48906357	    -19.32104048	    -21.54477167	   -152.08886951	   -110.24617943	     44.47021549	     88.52233314	    -30.07238019	     -4.58607985	    -16.11133081	   -175.96095621	     15.29951253	      0.37356351	      2.11033149	    -36.37170296	    -11.20123667
      2.11864407	      0.16628036	     -0.96327486	     84.26850257	      0.22246362	      0.78794740	      0.70113282	      0.93036025	     -0.70191430	    -13.63603389	     10.01727864	      0.17483449	     23.37319718	     18.03147926	      0.00000000	     -0.10119643	     -1.41620045	     -1.77799343	     10.72139021	      0.18712356	     12.49484691	     -7.60673457	      0.00000000	      0.44827565	     -0.27881785	     -0.83053271	      0.83249270	     -0.37082773	     -0.88244100	      0.73647206	     -0.67791771	     -0.88244100	      0.51233424	     -0.67791771	     -0.72671612	      0.41626876	     -0.56856535	     -0.67480782	      0.25614470	     -0.43188884	     -0.62289953	      3.20198811	     -3.15404323	     -4.61917376	      0.00000000	      0.00000000	     28.17670274	     -0.37643700	    -22.27459044	    -20.50529745	   -150.67119290	   -106.93402731	     48.80464225	     88.54928757	    -29.57098993	     -3.16865589	    -16.60250534	   -178.15953916	      6.76830874	      0.37109796	      1.59794643	    -32.44725683	    -19.45378980
      2.13559322	     -0.09258181	     -0.66274358	     84.06196943	      0.22370511	      0.78710847	      0.70126253	      0.81079141	     -0.97707710	    -13.41357054	     10.41440489	      0.18176566	     23.84612664	     17.99689896	      0.00000000	     -0.32674230	     -1.10142723	     -1.36377962	     10.83812131	      0.18916090	     12.77799432	     -8.42367704	      0.00000000	      0.41154151	     -0.37649656	     -0.65720558	      0.76427375	     -0.50074042	     -0.69828093	      0.67612155	     -0.91541374	     -0.69828093	      0.47035080	     -0.91541374	     -0.57505489	      0.38215745	     -0.76775178	     -0.53397954	      0.23515482	     -0.58319317	     -0.49290419	      2.93959988	     -4.25900438	     -3.65518030	      0.00000000	      0.00000000	     28.18527819	     -0.19005873	    -26.15769890	    -19.33176842	   -148.95834420	   -103.70744566	     53.36192090	     88.59110582	    -28.58509477	     -1.02061877	    -17.00282360	   -180.85973270	      3.29487694	      0.34637952	      1.22080631	    -28.93137349	    -23.03153872
      2.15254237	     -0.48556774	     -0.35254479	     83.90172663	      0.22534832	      0.78621765	      0.70139998	      0.70528886	     -1.37761688	    -13.28441904	     10.82663137	      0.18896036	     24.44544119	     17.97179462	      0.00000000	     -0.60420838	     -0.61655448	     -0.32282468	     10.79399256	      0.18839071	     12.72570966	    -10.00585949	      0.00000000	      0.37291789	     -0.50919578	     -0.50323574	      0.69254582	     -0.67723038	     -0.53468797	      0.61266681	     -1.23805861	     -0.53468797	      0.42620786	     -1.23805861	     -0.44033127	      0.34629156	     -1.03835203	     -0.40887904	      0.21308529	     -0.78874426	     -0.37742680	      2.66371523	     -5.76012446	     -2.79884619	      0.00000000	      0.00000000	     28.18613356	      0.67741527	    -30.31309813	    -18.26653128	   -147.09113465	   -100.68105658	     57.09520466	     88.44569577	    -27.90485222	     -0.69006894	    -16.90260271	   -183.99421968	     -2.28130844	      0.33116135	      0.95224130	    -13.12304690	    -24.28943339
